<?xml version="1.0" standalone="no"?><svg xmlns="http://www.w3.org/2000/svg" viewBox="0 0 1440 320"><path fill="rgb(13, 110, 253)" fill-opacity="1" d="M0,192L34.3,202.7C68.6,213,137,235,206,218.7C274.3,203,343,149,411,154.7C480,160,549,224,617,250.7C685.7,277,754,267,823,266.7C891.4,267,960,277,1029,272C1097.1,267,1166,245,1234,245.3C1302.9,245,1371,267,1406,277.3L1440,288L1440,320L1405.7,320C1371.4,320,1303,320,1234,320C1165.7,320,1097,320,1029,320C960,320,891,320,823,320C754.3,320,686,320,617,320C548.6,320,480,320,411,320C342.9,320,274,320,206,320C137.1,320,69,320,34,320L0,320Z"></path></svg>